<?xml version="1.0" encoding="utf-8"?>
<!-- Generator: Adobe Illustrator 25.3.0, SVG Export Plug-In . SVG Version: 6.00 Build 0)  -->
<svg version="1.1" xmlns="http://www.w3.org/2000/svg" xmlns:xlink="http://www.w3.org/1999/xlink" x="0px" y="0px"
	 viewBox="0 0 800 627" style="enable-background:new 0 0 800 627;" xml:space="preserve">
<style type="text/css">
	.st0{fill:#E2E2E2;}
	.st1{fill:#CCCCCC;}
	.st2{fill:#AFAFAF;}
	.st3{display:none;}
	.st4{display:inline;fill:none;stroke:#000000;stroke-miterlimit:10;}
	.st5{fill:#FFFFFF;}
	.st6{fill:#3399FF;stroke:#3399FF;stroke-miterlimit:10;}
	.st7{font-family:'MyriadPro-Regular';}
	.st8{font-size:20px;}
	.st9{display:inline;}
	.st10{fill:#FF3366;stroke:#FF3366;stroke-miterlimit:10;}
	.st11{fill:#C0DAFF;stroke:#C0DAFF;stroke-miterlimit:10;}
	.st12{display:inline;fill:#990033;stroke:#990033;stroke-miterlimit:10;}
	.st13{fill:#FFCCCC;stroke:#FFCCCC;stroke-miterlimit:10;}
	.st14{display:inline;fill:none;stroke:#990033;stroke-width:3;stroke-miterlimit:10;}
	.st15{fill:#990033;stroke:#990033;stroke-miterlimit:10;}
	.st16{fill:none;stroke:#990033;stroke-width:3;stroke-miterlimit:10;}
	.st17{fill:none;}
	.st18{font-family:'ArialMT';}
</style>
<g id="Desktop">
	<path class="st0" d="M718.48,468H81.52C69.08,468,59,457.92,59,445.48V62.52C59,50.08,69.08,40,81.52,40h636.95
		C730.92,40,741,50.08,741,62.52v382.95C741,457.92,730.92,468,718.48,468z"/>
	<g>
		<path class="st1" d="M85.48,114V68.11c0-5.71,4.64-10.35,10.34-10.35h608.24c5.71,0,10.35,4.64,10.35,10.35V114H85.48z"/>
		<path class="st1" d="M704.06,58.26c5.43,0,9.85,4.42,9.85,9.85v45.39H85.98V68.11c0-5.43,4.41-9.85,9.84-9.85H704.06
			 M704.06,57.26H95.82c-5.99,0-10.84,4.86-10.84,10.85v46.39h629.93V68.11C714.91,62.12,710.05,57.26,704.06,57.26L704.06,57.26z"
			/>
	</g>
	<g>
		<path class="st2" d="M95.82,402.5c-5.7,0-10.34-4.64-10.34-10.35V115h628.93v277.15c0,5.71-4.64,10.35-10.35,10.35H95.82z"/>
		<path class="st2" d="M713.91,115.5v276.65c0,5.43-4.42,9.85-9.85,9.85H95.82c-5.43,0-9.84-4.42-9.84-9.85V115.5H713.91
			 M714.91,114.5H84.98v277.65c0,5.99,4.85,10.85,10.84,10.85h608.24c5.99,0,10.85-4.86,10.85-10.85V114.5L714.91,114.5z"/>
	</g>
	<g class="st3">
		<line class="st4" x1="85" y1="80.5" x2="715" y2="80.5"/>
	</g>
	<rect x="136.5" y="88.84" class="st0" width="62" height="16"/>
	<rect x="231.93" y="88.84" class="st0" width="129.57" height="16"/>
	<g>
		<rect x="198.66" y="89.34" class="st2" width="17.34" height="15"/>
		<path class="st2" d="M215.5,89.84v14h-16.34v-14H215.5 M216.5,88.84h-18.34v16h18.34V88.84L216.5,88.84z"/>
	</g>
	<g>
		<rect x="362.27" y="89.34" class="st2" width="17.34" height="15"/>
		<path class="st2" d="M379.11,89.84v14h-16.34v-14H379.11 M380.11,88.84h-18.34v16h18.34V88.84L380.11,88.84z"/>
	</g>
	<g>
		<rect x="400.27" y="89.34" class="st2" width="17.34" height="15"/>
		<path class="st2" d="M417.11,89.84v14h-16.34v-14H417.11 M418.11,88.84h-18.34v16h18.34V88.84L418.11,88.84z"/>
	</g>
	<g>
		<rect x="436.27" y="89.34" class="st2" width="17.34" height="15"/>
		<path class="st2" d="M453.11,89.84v14h-16.34v-14H453.11 M454.11,88.84h-18.34v16h18.34V88.84L454.11,88.84z"/>
	</g>
	<g>
		<rect x="473.27" y="89.34" class="st2" width="17.34" height="15"/>
		<path class="st2" d="M490.11,89.84v14h-16.34v-14H490.11 M491.11,88.84h-18.34v16h18.34V88.84L491.11,88.84z"/>
	</g>
	<g>
		<rect x="101.27" y="89.34" class="st2" width="17.34" height="15"/>
		<path class="st2" d="M118.11,89.84v14h-16.34v-14H118.11 M119.11,88.84h-18.34v16h18.34V88.84L119.11,88.84z"/>
	</g>
	<g>
		<circle class="st2" cx="100.5" cy="69.5" r="6.5"/>
		<path class="st2" d="M100.5,63.5c3.31,0,6,2.69,6,6s-2.69,6-6,6s-6-2.69-6-6S97.19,63.5,100.5,63.5 M100.5,62.5
			c-3.87,0-7,3.13-7,7s3.13,7,7,7s7-3.13,7-7S104.37,62.5,100.5,62.5L100.5,62.5z"/>
	</g>
	<g>
		<circle class="st2" cx="147.5" cy="69.5" r="6.5"/>
		<path class="st2" d="M147.5,63.5c3.31,0,6,2.69,6,6s-2.69,6-6,6s-6-2.69-6-6S144.19,63.5,147.5,63.5 M147.5,62.5
			c-3.87,0-7,3.13-7,7s3.13,7,7,7s7-3.13,7-7S151.37,62.5,147.5,62.5L147.5,62.5z"/>
	</g>
	<g>
		<circle class="st2" cx="123.5" cy="69.5" r="6.5"/>
		<path class="st2" d="M123.5,63.5c3.31,0,6,2.69,6,6s-2.69,6-6,6s-6-2.69-6-6S120.19,63.5,123.5,63.5 M123.5,62.5
			c-3.87,0-7,3.13-7,7s3.13,7,7,7s7-3.13,7-7S127.37,62.5,123.5,62.5L123.5,62.5z"/>
	</g>
	<g>
		<g>
			<polygon class="st2" points="305.58,575 321.93,468.5 476.07,468.5 492.42,575 			"/>
			<path class="st2" d="M475.64,469l16.19,105.5H306.17L322.36,469H475.64 M476.5,468h-155L305,575.5h188L476.5,468L476.5,468z"/>
		</g>
		<g>
			<rect x="269.5" y="576" class="st2" width="261" height="6"/>
			<path class="st2" d="M530,576.5v5H270v-5H530 M531,575.5H269v7h262V575.5L531,575.5z"/>
		</g>
	</g>
</g>
<g id="Styled">
	<g>
		<rect x="135.94" y="145.5" class="st5" width="328" height="257"/>
		<path class="st5" d="M463.44,146v256h-327V146H463.44 M464.44,145h-329v258h329V145L464.44,145z"/>
	</g>
	<g>
		<rect x="167.5" y="185.5" class="st0" width="178" height="13"/>
		<rect x="167.5" y="218.39" class="st0" width="260" height="7"/>
		<rect x="167.5" y="302.94" class="st0" width="260" height="7"/>
		<rect x="167.5" y="324.08" class="st0" width="70" height="7"/>
		<rect x="167.5" y="281.81" class="st0" width="260" height="7"/>
		<rect x="167.5" y="387.5" class="st0" width="260" height="7"/>
		<rect x="296.5" y="260.67" class="st0" width="131" height="7"/>
		<rect x="167.5" y="345.22" class="st0" width="260" height="7"/>
		<rect x="167.5" y="366.36" class="st0" width="260" height="7"/>
		<rect x="167.5" y="239.53" class="st0" width="260" height="7"/>
		<rect x="370.5" y="324.5" class="st0" width="57" height="7"/>
		<g>
			<rect x="177.5" y="260.67" class="st6" width="103" height="7"/>
			<text transform="matrix(1 0 0 1 167.4732 269.843)" class="st6 st7 st8">(</text>
			<text transform="matrix(1 0 0 1 286.1385 269.5078)" class="st6 st7 st8">)</text>
		</g>
		<g>
			<rect x="250.5" y="324.5" class="st6" width="103" height="7"/>
			<text transform="matrix(1 0 0 1 240.4732 333.6763)" class="st6 st7 st8">(</text>
			<text transform="matrix(1 0 0 1 359.1385 333.3412)" class="st6 st7 st8">)</text>
		</g>
	</g>
</g>
<g id="Citations" class="st3">
	<g class="st9">
		<rect x="135.94" y="145.5" class="st5" width="328" height="257"/>
		<path class="st5" d="M463.44,146v256h-327V146H463.44 M464.44,145h-329v258h329V145L464.44,145z"/>
	</g>
	<g class="st9">
		<rect x="167.5" y="185.5" class="st0" width="178" height="13"/>
		<rect x="167.5" y="218.39" class="st0" width="260" height="7"/>
		<rect x="167.5" y="302.94" class="st0" width="260" height="7"/>
		<rect x="167.5" y="324.08" class="st0" width="70" height="7"/>
		<rect x="167.5" y="281.81" class="st0" width="260" height="7"/>
		<rect x="167.5" y="387.5" class="st0" width="260" height="7"/>
		<rect x="302" y="260.67" class="st0" width="125.5" height="7"/>
		<rect x="167.5" y="345.22" class="st0" width="260" height="7"/>
		<rect x="167.5" y="366.36" class="st0" width="260" height="7"/>
		<rect x="167.5" y="239.53" class="st0" width="260" height="7"/>
		<rect x="376" y="324.5" class="st0" width="51.5" height="7"/>
		<g>
			<rect x="184.5" y="260.67" class="st10" width="96" height="7"/>
			<text transform="matrix(1 0 0 1 167.4732 269.843)" class="st10 st7 st8">&lt;</text>
			<text transform="matrix(1 0 0 1 286.1385 269.5078)" class="st10 st7 st8">&gt;</text>
		</g>
		<g>
			<rect x="257.5" y="324.5" class="st10" width="96" height="7"/>
			<text transform="matrix(1 0 0 1 240.4732 333.6763)" class="st10 st7 st8">&lt;</text>
			<text transform="matrix(1 0 0 1 359.1385 333.3412)" class="st10 st7 st8">&gt;</text>
		</g>
	</g>
</g>
<g id="Plain" class="st3">
	<g class="st9">
		<rect x="135.94" y="145.5" class="st5" width="328" height="257"/>
		<path class="st5" d="M463.44,146v256h-327V146H463.44 M464.44,145h-329v258h329V145L464.44,145z"/>
	</g>
	<g class="st9">
		<rect x="167.5" y="185.5" class="st0" width="178" height="13"/>
		<rect x="167.5" y="218.39" class="st0" width="260" height="7"/>
		<rect x="167.5" y="302.94" class="st0" width="260" height="7"/>
		<rect x="167.5" y="324.08" class="st0" width="260" height="7"/>
		<rect x="167.5" y="281.81" class="st0" width="260" height="7"/>
		<rect x="167.5" y="387.5" class="st0" width="260" height="7"/>
		<rect x="167.5" y="260.67" class="st0" width="260" height="7"/>
		<rect x="167.5" y="345.22" class="st0" width="260" height="7"/>
		<rect x="167.5" y="366.36" class="st0" width="260" height="7"/>
		<rect x="167.5" y="239.53" class="st0" width="260" height="7"/>
	</g>
</g>
<g id="References" class="st3">
	<g class="st9">
		<rect x="235.5" y="145.5" class="st5" width="328" height="257"/>
		<path class="st5" d="M563,146v256H236V146H563 M564,145H235v258h329V145L564,145z"/>
	</g>
	<g class="st9">
		<rect x="267.5" y="185.5" class="st0" width="178" height="13"/>
		<rect x="267.5" y="218.39" class="st11" width="260" height="7"/>
		<rect x="285" y="283.5" class="st11" width="242.5" height="7"/>
		<rect x="285" y="295.5" class="st11" width="242.5" height="7"/>
		<rect x="267.5" y="271.81" class="st11" width="260" height="7"/>
		<rect x="285" y="350.5" class="st11" width="242.5" height="7"/>
		<rect x="285" y="242.5" class="st11" width="242.5" height="7"/>
		<rect x="267.5" y="326.22" class="st11" width="260" height="7"/>
		<rect x="285" y="338.5" class="st11" width="242.5" height="7"/>
		<rect x="285" y="230.5" class="st11" width="242.5" height="7"/>
	</g>
	<circle class="st12" cx="522.5" cy="93.5" r="15"/>
</g>
<g id="Plugin_citations" class="st3">
	<g class="st9">
		<g>
			<rect x="502" y="115.5" class="st5" width="198" height="21"/>
			<g>
				<path class="st5" d="M699.5,116v20h-197v-20H699.5 M700.5,115h-199v22h199V115L700.5,115z"/>
			</g>
		</g>
		<g>
			<rect x="502" y="138.5" class="st1" width="198" height="21"/>
			<g>
				<path class="st1" d="M699.5,139v20h-197v-20H699.5 M700.5,138h-199v22h199V138L700.5,138z"/>
			</g>
		</g>
		<g>
			<rect x="502" y="161.5" class="st1" width="198" height="21"/>
			<g>
				<path class="st1" d="M699.5,162v20h-197v-20H699.5 M700.5,161h-199v22h199V161L700.5,161z"/>
			</g>
		</g>
		<g>
			<rect x="502" y="184.5" class="st1" width="198" height="21"/>
			<g>
				<path class="st1" d="M699.5,185v20h-197v-20H699.5 M700.5,184h-199v22h199V184L700.5,184z"/>
			</g>
		</g>
		<rect x="501.5" y="207" class="st13" width="199" height="22"/>
		<g>
			<rect x="502" y="230.5" class="st1" width="198" height="21"/>
			<g>
				<path class="st1" d="M699.5,231v20h-197v-20H699.5 M700.5,230h-199v22h199V230L700.5,230z"/>
			</g>
		</g>
		<g>
			<rect x="502" y="253.5" class="st1" width="198" height="21"/>
			<g>
				<path class="st1" d="M699.5,254v20h-197v-20H699.5 M700.5,253h-199v22h199V253L700.5,253z"/>
			</g>
		</g>
		<g>
			<rect x="508.5" y="123.5" class="st2" width="83" height="6"/>
			<g>
				<path class="st2" d="M591,124v5h-82v-5H591 M592,123h-84v7h84V123L592,123z"/>
			</g>
		</g>
		<g>
			<rect x="508.5" y="145.5" class="st2" width="122" height="6"/>
			<g>
				<path class="st2" d="M630,146v5H509v-5H630 M631,145H508v7h123V145L631,145z"/>
			</g>
		</g>
		<g>
			<rect x="508.5" y="168.5" class="st2" width="169" height="6"/>
			<g>
				<path class="st2" d="M677,169v5H509v-5H677 M678,168H508v7h170V168L678,168z"/>
			</g>
		</g>
		<g>
			<rect x="508.5" y="191.5" class="st2" width="91" height="6"/>
			<g>
				<path class="st2" d="M599,192v5h-90v-5H599 M600,191h-92v7h92V191L600,191z"/>
			</g>
		</g>
		<rect x="508" y="214" class="st10" width="128" height="7"/>
		<g>
			<rect x="508.5" y="237.5" class="st2" width="141" height="6"/>
			<g>
				<path class="st2" d="M649,238v5H509v-5H649 M650,237H508v7h142V237L650,237z"/>
			</g>
		</g>
		<g>
			<rect x="508.5" y="260.5" class="st2" width="124" height="6"/>
			<g>
				<path class="st2" d="M632,261v5H509v-5H632 M633,260H508v7h125V260L633,260z"/>
			</g>
		</g>
	</g>
	<circle class="st12" cx="522.5" cy="93.5" r="15"/>
	<rect x="499.5" y="113.5" class="st14" width="203" height="26"/>
</g>
<g id="Plugin_cstyles">
	<g>
		<g>
			<rect x="502" y="115.5" class="st5" width="198" height="21"/>
			<g>
				<path class="st5" d="M699.5,116v20h-197v-20H699.5 M700.5,115h-199v22h199V115L700.5,115z"/>
			</g>
		</g>
		<g>
			<rect x="502" y="138.5" class="st1" width="198" height="21"/>
			<g>
				<path class="st1" d="M699.5,139v20h-197v-20H699.5 M700.5,138h-199v22h199V138L700.5,138z"/>
			</g>
		</g>
		<g>
			<rect x="502" y="161.5" class="st1" width="198" height="21"/>
			<g>
				<path class="st1" d="M699.5,162v20h-197v-20H699.5 M700.5,161h-199v22h199V161L700.5,161z"/>
			</g>
		</g>
		<g>
			<rect x="502" y="184.5" class="st1" width="198" height="21"/>
			<g>
				<path class="st1" d="M699.5,185v20h-197v-20H699.5 M700.5,184h-199v22h199V184L700.5,184z"/>
			</g>
		</g>
		<rect x="501.5" y="207" class="st11" width="199" height="22"/>
		<g>
			<rect x="502" y="230.5" class="st1" width="198" height="21"/>
			<g>
				<path class="st1" d="M699.5,231v20h-197v-20H699.5 M700.5,230h-199v22h199V230L700.5,230z"/>
			</g>
		</g>
		<g>
			<rect x="502" y="253.5" class="st1" width="198" height="21"/>
			<g>
				<path class="st1" d="M699.5,254v20h-197v-20H699.5 M700.5,253h-199v22h199V253L700.5,253z"/>
			</g>
		</g>
		<g>
			<rect x="508.5" y="123.5" class="st2" width="83" height="6"/>
			<g>
				<path class="st2" d="M591,124v5h-82v-5H591 M592,123h-84v7h84V123L592,123z"/>
			</g>
		</g>
		<g>
			<rect x="508.5" y="145.5" class="st2" width="122" height="6"/>
			<g>
				<path class="st2" d="M630,146v5H509v-5H630 M631,145H508v7h123V145L631,145z"/>
			</g>
		</g>
		<g>
			<rect x="508.5" y="168.5" class="st2" width="169" height="6"/>
			<g>
				<path class="st2" d="M677,169v5H509v-5H677 M678,168H508v7h170V168L678,168z"/>
			</g>
		</g>
		<g>
			<rect x="508.5" y="191.5" class="st2" width="91" height="6"/>
			<g>
				<path class="st2" d="M599,192v5h-90v-5H599 M600,191h-92v7h92V191L600,191z"/>
			</g>
		</g>
		<g>
			<rect x="508.5" y="237.5" class="st2" width="141" height="6"/>
			<g>
				<path class="st2" d="M649,238v5H509v-5H649 M650,237H508v7h142V237L650,237z"/>
			</g>
		</g>
		<g>
			<rect x="508.5" y="260.5" class="st2" width="124" height="6"/>
			<g>
				<path class="st2" d="M632,261v5H509v-5H632 M633,260H508v7h125V260L633,260z"/>
			</g>
		</g>
	</g>
	<circle class="st15" cx="522.5" cy="93.5" r="15"/>
	<rect x="499.5" y="113.5" class="st16" width="203" height="26"/>
	<rect x="508.23" y="210.36" class="st17" width="147.77" height="17.64"/>
	<text transform="matrix(1 0 0 1 508.2266 224.6821)" class="st6 st18 st8">APA 7th ed.</text>
</g>
</svg>
